# xmcd
#
# Track frame offsets: 
#        182
#        16337
#        34730
#        49025
#        61580
#        74095
#        87015
#        97745
#        110372
#        121297
#
# Disc length: 1778 seconds
#
# Revision: 3
# Processed by: cddbd v1.5.2PL0 Copyright (c) Steve Scherf et al.
# Submitted via: ExactAudioCopy v0.95b4
#
DISCID=7506f00a
DTITLE=Johnny Lee - Greatest Hits
DYEAR=1983
DGENRE=Country
TTITLE0=Lookin' For Love
TTITLE1=Cherokee Fiddle
TTITLE2=Prisoner Of Hope
TTITLE3=When You Fall In Love
TTITLE4=Bet Your Heart On Me
TTITLE5=Sounds Like Love
TTITLE6=Pickin' Up Strangers
TTITLE7=One In A Million
TTITLE8=Be There For Me Baby
TTITLE9=Hey Bartender
EXTD=
EXTT0=
EXTT1=
EXTT2=
EXTT3=
EXTT4=
EXTT5=
EXTT6=
EXTT7=
EXTT8=
EXTT9=
PLAYORDER=
